<svg width="290" height="87" viewBox="0 0 290 87" fill="none" xmlns="http://www.w3.org/2000/svg">
<path d="M72.7754 1.00049L217.224 1.00048L288.05 43.3013L217.224 85.602L72.7754 85.602L1.94922 43.3013L72.7754 1.00049Z" fill="#FFC107" stroke="#7C631A" stroke-width="2"/>
<path d="M73.4246 53.3013L79.5926 35.4213H83.8166L89.9846 53.3013H86.4386L85.1546 49.4733H78.2426L76.9526 53.3013H73.4246ZM79.1726 46.5933H84.2126L81.2546 37.6893H82.1546L79.1726 46.5933ZM92.8166 58.5813C92.4646 58.5813 92.1206 58.5523 91.7846 58.4943C91.4486 58.4363 91.1466 58.3413 90.8786 58.2093V55.5753C91.0866 55.6273 91.3356 55.6763 91.6256 55.7223C91.9156 55.7683 92.1886 55.7913 92.4446 55.7913C93.1686 55.7913 93.6966 55.6273 94.0286 55.2993C94.3606 54.9713 94.6486 54.5353 94.8926 53.9913L95.7626 51.9813L95.7146 54.6273L90.0326 40.2573H93.4166L97.3946 50.8653H96.1886L100.161 40.2573H103.557L97.8746 54.6273C97.5466 55.4553 97.1416 56.1673 96.6596 56.7633C96.1776 57.3593 95.6196 57.8113 94.9856 58.1193C94.3516 58.4273 93.6286 58.5813 92.8166 58.5813ZM111.429 53.5893C110.153 53.5893 108.992 53.2943 107.946 52.7043C106.9 52.1143 106.067 51.3053 105.447 50.2773C104.827 49.2493 104.517 48.0813 104.517 46.7733C104.517 45.4573 104.826 44.2893 105.444 43.2693C106.062 42.2493 106.893 41.4443 107.937 40.8543C108.981 40.2643 110.145 39.9693 111.429 39.9693C112.713 39.9693 113.874 40.2633 114.912 40.8513C115.95 41.4393 116.777 42.2433 117.393 43.2633C118.009 44.2833 118.317 45.4533 118.317 46.7733C118.317 48.0853 118.006 49.2553 117.384 50.2833C116.762 51.3113 115.932 52.1193 114.894 52.7073C113.856 53.2953 112.701 53.5893 111.429 53.5893ZM111.429 50.7093C112.137 50.7093 112.761 50.5413 113.301 50.2053C113.841 49.8693 114.267 49.4033 114.579 48.8073C114.891 48.2113 115.047 47.5333 115.047 46.7733C115.047 46.0133 114.891 45.3403 114.579 44.7543C114.267 44.1683 113.841 43.7043 113.301 43.3623C112.761 43.0203 112.137 42.8493 111.429 42.8493C110.721 42.8493 110.094 43.0203 109.548 43.3623C109.002 43.7043 108.572 44.1683 108.258 44.7543C107.944 45.3403 107.787 46.0133 107.787 46.7733C107.787 47.5333 107.944 48.2113 108.258 48.8073C108.572 49.4033 109.002 49.8693 109.548 50.2053C110.094 50.5413 110.721 50.7093 111.429 50.7093ZM124.965 53.3013V40.2573H127.935V43.2633L127.593 42.7773C127.825 41.8333 128.304 41.1293 129.03 40.6653C129.756 40.2013 130.607 39.9693 131.583 39.9693C132.647 39.9693 133.588 40.2463 134.406 40.8003C135.224 41.3543 135.753 42.0913 135.993 43.0113L135.093 43.0893C135.497 42.0373 136.098 41.2543 136.896 40.7403C137.694 40.2263 138.615 39.9693 139.659 39.9693C140.583 39.9693 141.409 40.1773 142.137 40.5933C142.865 41.0093 143.44 41.5873 143.862 42.3273C144.284 43.0673 144.495 43.9233 144.495 44.8953V53.3013H141.345V45.6453C141.345 45.0653 141.241 44.5693 141.033 44.1573C140.825 43.7453 140.535 43.4243 140.163 43.1943C139.791 42.9643 139.347 42.8493 138.831 42.8493C138.331 42.8493 137.89 42.9643 137.508 43.1943C137.126 43.4243 136.83 43.7463 136.62 44.1603C136.41 44.5743 136.305 45.0693 136.305 45.6453V53.3013H133.155V45.6453C133.155 45.0653 133.051 44.5693 132.843 44.1573C132.635 43.7453 132.345 43.4243 131.973 43.1943C131.601 42.9643 131.157 42.8493 130.641 42.8493C130.137 42.8493 129.695 42.9643 129.315 43.1943C128.935 43.4243 128.64 43.7463 128.43 44.1603C128.22 44.5743 128.115 45.0693 128.115 45.6453V53.3013H124.965ZM151.113 53.5893C150.201 53.5893 149.407 53.4363 148.731 53.1303C148.055 52.8243 147.533 52.3903 147.165 51.8283C146.797 51.2663 146.613 50.6033 146.613 49.8393C146.613 49.1193 146.775 48.4773 147.099 47.9133C147.423 47.3493 147.922 46.8753 148.596 46.4913C149.27 46.1073 150.115 45.8353 151.131 45.6753L155.397 44.9793V47.3673L151.725 48.0093C151.109 48.1213 150.648 48.3183 150.342 48.6003C150.036 48.8823 149.883 49.2593 149.883 49.7313C149.883 50.1753 150.054 50.5313 150.396 50.7993C150.738 51.0673 151.167 51.2013 151.683 51.2013C152.347 51.2013 152.929 51.0583 153.429 50.7723C153.929 50.4863 154.318 50.0983 154.596 49.6083C154.874 49.1183 155.013 48.5773 155.013 47.9853V44.6133C155.013 44.0493 154.796 43.5813 154.362 43.2093C153.928 42.8373 153.347 42.6513 152.619 42.6513C151.943 42.6513 151.348 42.8323 150.834 43.1943C150.32 43.5563 149.943 44.0313 149.703 44.6193L147.135 43.3713C147.387 42.6833 147.788 42.0853 148.338 41.5773C148.888 41.0693 149.541 40.6743 150.297 40.3923C151.053 40.1103 151.869 39.9693 152.745 39.9693C153.809 39.9693 154.75 40.1653 155.568 40.5573C156.386 40.9493 157.023 41.4933 157.479 42.1893C157.935 42.8853 158.163 43.6933 158.163 44.6133V53.3013H155.193V51.0753L155.871 51.0333C155.527 51.5853 155.122 52.0513 154.656 52.4313C154.19 52.8113 153.662 53.0993 153.072 53.2953C152.482 53.4913 151.829 53.5893 151.113 53.5893ZM161.061 53.3013V40.2573H164.211V53.3013H161.061ZM161.061 38.7813V35.4213H164.211V38.7813H161.061ZM167.109 53.3013V40.2573H170.079V42.8253L169.833 42.3693C170.141 41.5733 170.641 40.9743 171.333 40.5723C172.025 40.1703 172.833 39.9693 173.757 39.9693C174.729 39.9693 175.585 40.1773 176.325 40.5933C177.065 41.0093 177.644 41.5873 178.062 42.3273C178.48 43.0673 178.689 43.9251 178.689 44.9007V53.3013H175.539V45.6453C175.539 45.0653 175.429 44.5693 175.209 44.1573C174.989 43.7453 174.68 43.4243 174.283 43.1943C173.886 42.9643 173.429 42.8493 172.912 42.8493C172.395 42.8493 171.935 42.9643 171.531 43.1943C171.127 43.4243 170.814 43.7463 170.592 44.1603C170.37 44.5743 170.259 45.0693 170.259 45.6453V53.3013H167.109ZM182.955 47.8773L182.745 35.4213H185.925L185.715 47.8773H182.955ZM182.745 53.3013V49.9413H185.925V53.3013H182.745Z" fill="#6D5100"/>
<path d="M200.397 41.2616L202.347 42.0866C202.58 41.6199 202.822 41.1699 203.072 40.7366C203.322 40.3032 203.597 39.8699 203.897 39.4366L202.497 39.1616L200.397 41.2616ZM203.947 43.3366L206.797 46.1616C207.497 45.8949 208.247 45.4866 209.047 44.9366C209.847 44.3866 210.597 43.7616 211.297 43.0616C212.463 41.8949 213.376 40.5991 214.034 39.1741C214.692 37.7491 214.98 36.4366 214.897 35.2366C213.697 35.1532 212.38 35.4407 210.947 36.0991C209.513 36.7574 208.213 37.6699 207.047 38.8366C206.347 39.5366 205.722 40.2866 205.172 41.0866C204.622 41.8866 204.213 42.6366 203.947 43.3366ZM208.397 41.7116C208.013 41.3282 207.822 40.8574 207.822 40.2991C207.822 39.7407 208.013 39.2699 208.397 38.8866C208.78 38.5032 209.255 38.3116 209.822 38.3116C210.388 38.3116 210.863 38.5032 211.247 38.8866C211.63 39.2699 211.822 39.7407 211.822 40.2991C211.822 40.8574 211.63 41.3282 211.247 41.7116C210.863 42.0949 210.388 42.2866 209.822 42.2866C209.255 42.2866 208.78 42.0949 208.397 41.7116ZM208.872 49.7366L210.972 47.6366L210.697 46.2366C210.263 46.5366 209.83 46.8074 209.397 47.0491C208.963 47.2907 208.513 47.5282 208.047 47.7616L208.872 49.7366ZM216.697 33.4116C217.013 35.4282 216.817 37.3907 216.109 39.2991C215.401 41.2074 214.18 43.0282 212.447 44.7616L212.947 47.2366C213.013 47.5699 212.997 47.8949 212.897 48.2116C212.797 48.5282 212.63 48.8032 212.397 49.0366L208.197 53.2366L206.097 48.3116L201.822 44.0366L196.897 41.9366L201.072 37.7366C201.305 37.5032 201.584 37.3366 201.909 37.2366C202.234 37.1366 202.563 37.1199 202.897 37.1866L205.372 37.6866C207.105 35.9532 208.922 34.7282 210.822 34.0116C212.722 33.2949 214.68 33.0949 216.697 33.4116ZM198.672 47.2116C199.255 46.6282 199.967 46.3324 200.809 46.3241C201.651 46.3157 202.363 46.6032 202.947 47.1866C203.53 47.7699 203.817 48.4824 203.809 49.3241C203.801 50.1657 203.505 50.8782 202.922 51.4616C202.505 51.8782 201.809 52.2366 200.834 52.5366C199.859 52.8366 198.513 53.1032 196.797 53.3366C197.03 51.6199 197.297 50.2741 197.597 49.2991C197.897 48.3241 198.255 47.6282 198.672 47.2116ZM200.097 48.6116C199.93 48.7782 199.763 49.0824 199.597 49.5241C199.43 49.9657 199.313 50.4116 199.247 50.8616C199.697 50.7949 200.142 50.6824 200.584 50.5241C201.026 50.3657 201.33 50.2032 201.497 50.0366C201.697 49.8366 201.805 49.5949 201.822 49.3116C201.838 49.0282 201.747 48.7866 201.547 48.5866C201.347 48.3866 201.105 48.2907 200.822 48.2991C200.538 48.3074 200.297 48.4116 200.097 48.6116Z" fill="#6D5100"/>
<rect y="3.30127" width="290" height="80" fill="url(#paint0_linear_56_843)"/>
<defs>
<linearGradient id="paint0_linear_56_843" x1="124.492" y1="117.644" x2="165.508" y2="-31.0413" gradientUnits="userSpaceOnUse">
<stop stop-color="white" stop-opacity="0.2"/>
<stop offset="1" stop-color="white" stop-opacity="0"/>
</linearGradient>
</defs>
</svg>
