<svg width="290" height="87" viewBox="0 0 290 87" fill="none" xmlns="http://www.w3.org/2000/svg">
<path d="M72.7754 1.00049L217.224 1.00048L288.05 43.3013L217.224 85.602L72.7754 85.602L1.94922 43.3013L72.7754 1.00049Z" fill="#FFC107" stroke="#7C631A" stroke-width="2"/>
<path d="M64.3266 53.3013L70.4946 35.4213H74.7186L80.8866 53.3013H77.3346L76.0626 49.4613H69.1506L67.8546 53.3013H64.3266ZM70.0866 46.5813H75.1266L72.1506 37.6773H73.0626L70.0866 46.5813ZM83.7278 58.5813C83.3758 58.5813 83.0318 58.5493 82.6958 58.4853C82.3598 58.4373 82.0558 58.3413 81.7838 58.1973V55.5813C81.9918 55.6293 82.2398 55.6773 82.5278 55.7253C82.8318 55.7733 83.1118 55.7973 83.3678 55.7973C84.0878 55.7973 84.6078 55.6293 84.9278 55.2933C85.2638 54.9733 85.5598 54.5413 85.8158 53.9973L86.6798 51.9813L86.6318 54.6213L80.9438 40.2453H84.3278L88.3118 50.8533H87.1118L91.0718 40.2453H94.4798L88.7918 54.6213C88.4558 55.4533 88.0478 56.1653 87.5678 56.7573C87.0878 57.3493 86.5278 57.7973 85.8878 58.1013C85.2638 58.4213 84.5438 58.5813 83.7278 58.5813ZM102.356 53.5893C101.076 53.5893 99.9079 53.2933 98.8519 52.7013C97.8119 52.1093 96.9799 51.3013 96.3559 50.2773C95.7479 49.2533 95.4439 48.0853 95.4439 46.7733C95.4439 45.4613 95.7479 44.2933 96.3559 43.2693C96.9799 42.2453 97.8119 41.4373 98.8519 40.8453C99.8919 40.2533 101.06 39.9573 102.356 39.9573C103.636 39.9573 104.796 40.2533 105.836 40.8453C106.876 41.4373 107.7 42.2453 108.308 43.2693C108.932 44.2773 109.244 45.4453 109.244 46.7733C109.244 48.0853 108.932 49.2533 108.308 50.2773C107.684 51.3013 106.852 52.1093 105.812 52.7013C104.772 53.2933 103.62 53.5893 102.356 53.5893ZM102.356 50.7093C103.06 50.7093 103.676 50.5413 104.204 50.2053C104.748 49.8693 105.172 49.4053 105.476 48.8133C105.796 48.2053 105.956 47.5253 105.956 46.7733C105.956 46.0053 105.796 45.3333 105.476 44.7573C105.172 44.1653 104.748 43.7013 104.204 43.3653C103.676 43.0133 103.06 42.8373 102.356 42.8373C101.636 42.8373 101.004 43.0133 100.46 43.3653C99.9159 43.7013 99.4839 44.1653 99.1639 44.7573C98.8599 45.3333 98.7079 46.0053 98.7079 46.7733C98.7079 47.5253 98.8599 48.2053 99.1639 48.8133C99.4839 49.4053 99.9159 49.8693 100.46 50.2053C101.004 50.5413 101.636 50.7093 102.356 50.7093ZM116.158 53.3013V35.4213H121.99C123.878 35.4213 125.518 35.8053 126.91 36.5733C128.318 37.3253 129.406 38.3733 130.174 39.7173C130.942 41.0453 131.326 42.5893 131.326 44.3493C131.326 46.0933 130.942 47.6453 130.174 49.0053C129.406 50.3493 128.318 51.4053 126.91 52.1733C125.518 52.9253 123.878 53.3013 121.99 53.3013H116.158ZM119.422 50.4213H122.062C123.278 50.4213 124.326 50.1733 125.206 49.6773C126.102 49.1653 126.798 48.4613 127.294 47.5653C127.79 46.6533 128.038 45.5813 128.038 44.3493C128.038 43.1013 127.79 42.0293 127.294 41.1333C126.798 40.2373 126.102 39.5413 125.206 39.0453C124.326 38.5493 123.278 38.3013 122.062 38.3013H119.422V50.4213ZM137.573 53.5893C136.661 53.5893 135.869 53.4373 135.197 53.1333C134.525 52.8293 134.005 52.3973 133.637 51.8373C133.269 51.2613 133.085 50.5973 133.085 49.8453C133.085 49.1253 133.245 48.4853 133.565 47.9253C133.885 47.3493 134.381 46.8693 135.053 46.4853C135.725 46.1013 136.573 45.8293 137.597 45.6693L141.869 44.9733V47.3733L138.197 47.9973C137.573 48.1093 137.109 48.3093 136.805 48.5973C136.501 48.8853 136.349 49.2613 136.349 49.7253C136.349 50.1733 136.517 50.5333 136.853 50.8053C137.205 51.0613 137.637 51.1893 138.149 51.1893C138.805 51.1893 139.381 51.0533 139.877 50.7813C140.389 50.4933 140.781 50.1013 141.053 49.6053C141.341 49.1093 141.485 48.5653 141.485 47.9733V44.6133C141.485 44.0533 141.261 43.5893 140.813 43.2213C140.381 42.8373 139.805 42.6453 139.085 42.6453C138.413 42.6453 137.813 42.8293 137.285 43.1973C136.773 43.5493 136.397 44.0213 136.157 44.6133L133.589 43.3653C133.845 42.6773 134.245 42.0853 134.789 41.5893C135.349 41.0773 136.005 40.6773 136.757 40.3893C137.509 40.1013 138.325 39.9573 139.205 39.9573C140.277 39.9573 141.221 40.1573 142.037 40.5573C142.853 40.9413 143.485 41.4853 143.933 42.1893C144.397 42.8773 144.629 43.6853 144.629 44.6133V53.3013H141.653V51.0693L142.325 51.0213C141.989 51.5813 141.589 52.0533 141.125 52.4373C140.661 52.8053 140.133 53.0933 139.541 53.3013C138.949 53.4933 138.293 53.5893 137.573 53.5893ZM148.859 53.3013V43.0533H146.555V40.2453H148.859V39.8133C148.859 38.8213 149.059 37.9813 149.459 37.2933C149.875 36.5893 150.451 36.0533 151.187 35.6853C151.923 35.3173 152.795 35.1333 153.803 35.1333C153.995 35.1333 154.203 35.1493 154.427 35.1813C154.667 35.1973 154.867 35.2213 155.027 35.2533V37.9653C154.867 37.9333 154.715 37.9173 154.571 37.9173C154.443 37.9013 154.323 37.8933 154.211 37.8933C153.507 37.8933 152.963 38.0533 152.579 38.3733C152.195 38.6773 152.003 39.1573 152.003 39.8133V40.2453H154.907V43.0533H152.003V53.3013H148.859ZM163.635 53.4453C162.163 53.4453 161.019 53.0453 160.203 52.2453C159.403 51.4293 159.003 50.2853 159.003 48.8133V43.0533H156.747V40.2453H156.987C157.627 40.2453 158.123 40.0773 158.475 39.7413C158.827 39.4053 159.003 38.9173 159.003 38.2773V37.2693H162.147V40.2453H165.147V43.0533H162.147V48.6453C162.147 49.0773 162.219 49.4453 162.363 49.7493C162.523 50.0533 162.763 50.2853 163.083 50.4453C163.419 50.6053 163.843 50.6853 164.355 50.6853C164.467 50.6853 164.595 50.6773 164.739 50.6613C164.899 50.6453 165.051 50.6293 165.195 50.6133V53.3013C164.971 53.3333 164.715 53.3653 164.427 53.3973C164.139 53.4293 163.875 53.4453 163.635 53.4453ZM171.51 53.5893C170.598 53.5893 169.806 53.4373 169.134 53.1333C168.462 52.8293 167.942 52.3973 167.574 51.8373C167.206 51.2613 167.022 50.5973 167.022 49.8453C167.022 49.1253 167.182 48.4853 167.502 47.9253C167.822 47.3493 168.318 46.8693 168.99 46.4853C169.662 46.1013 170.51 45.8293 171.534 45.6693L175.806 44.9733V47.3733L172.134 47.9973C171.51 48.1093 171.046 48.3093 170.742 48.5973C170.438 48.8853 170.286 49.2613 170.286 49.7253C170.286 50.1733 170.454 50.5333 170.79 50.8053C171.142 51.0613 171.574 51.1893 172.086 51.1893C172.742 51.1893 173.318 51.0533 173.814 50.7813C174.326 50.4933 174.718 50.1013 174.99 49.6053C175.278 49.1093 175.422 48.5653 175.422 47.9733V44.6133C175.422 44.0533 175.198 43.5893 174.75 43.2213C174.318 42.8373 173.742 42.6453 173.022 42.6453C172.35 42.6453 171.75 42.8293 171.222 43.1973C170.71 43.5493 170.334 44.0213 170.094 44.6133L167.526 43.3653C167.782 42.6773 168.182 42.0853 168.726 41.5893C169.286 41.0773 169.942 40.6773 170.694 40.3893C171.446 40.1013 172.262 39.9573 173.142 39.9573C174.214 39.9573 175.158 40.1573 175.974 40.5573C176.79 40.9413 177.422 41.4853 177.87 42.1893C178.334 42.8773 178.566 43.6853 178.566 44.6133V53.3013H175.59V51.0693L176.262 51.0213C175.926 51.5813 175.526 52.0533 175.062 52.4373C174.598 52.8053 174.07 53.0933 173.478 53.3013C172.886 53.4933 172.23 53.5893 171.51 53.5893ZM181.472 53.3013V40.2453H184.424V43.1493L184.184 42.7173C184.488 41.7413 184.96 41.0613 185.6 40.6773C186.256 40.2933 187.04 40.1013 187.952 40.1013H188.72V42.8853H187.592C186.696 42.8853 185.976 43.1653 185.432 43.7253C184.888 44.2693 184.616 45.0373 184.616 46.0293V53.3013H181.472ZM192.056 47.8773L191.84 35.4213H195.032L194.816 47.8773H192.056ZM191.84 53.3013V49.9413H195.032V53.3013H191.84Z" fill="#6D5100"/>
<path d="M209.577 41.2616L211.527 42.0866C211.76 41.6199 212.002 41.1699 212.252 40.7366C212.502 40.3032 212.777 39.8699 213.077 39.4366L211.677 39.1616L209.577 41.2616ZM213.127 43.3366L215.977 46.1616C216.677 45.8949 217.427 45.4866 218.227 44.9366C219.027 44.3866 219.777 43.7616 220.477 43.0616C221.643 41.8949 222.556 40.5991 223.214 39.1741C223.872 37.7491 224.16 36.4366 224.077 35.2366C222.877 35.1532 221.56 35.4407 220.127 36.0991C218.693 36.7574 217.393 37.6699 216.227 38.8366C215.527 39.5366 214.902 40.2866 214.352 41.0866C213.802 41.8866 213.393 42.6366 213.127 43.3366ZM217.577 41.7116C217.193 41.3282 217.002 40.8574 217.002 40.2991C217.002 39.7407 217.193 39.2699 217.577 38.8866C217.96 38.5032 218.435 38.3116 219.002 38.3116C219.568 38.3116 220.043 38.5032 220.427 38.8866C220.81 39.2699 221.002 39.7407 221.002 40.2991C221.002 40.8574 220.81 41.3282 220.427 41.7116C220.043 42.0949 219.568 42.2866 219.002 42.2866C218.435 42.2866 217.96 42.0949 217.577 41.7116ZM218.052 49.7366L220.152 47.6366L219.877 46.2366C219.443 46.5366 219.01 46.8074 218.577 47.0491C218.143 47.2907 217.693 47.5282 217.227 47.7616L218.052 49.7366ZM225.877 33.4116C226.193 35.4282 225.997 37.3907 225.289 39.2991C224.581 41.2074 223.36 43.0282 221.627 44.7616L222.127 47.2366C222.193 47.5699 222.177 47.8949 222.077 48.2116C221.977 48.5282 221.81 48.8032 221.577 49.0366L217.377 53.2366L215.277 48.3116L211.002 44.0366L206.077 41.9366L210.252 37.7366C210.485 37.5032 210.764 37.3366 211.089 37.2366C211.414 37.1366 211.743 37.1199 212.077 37.1866L214.552 37.6866C216.285 35.9532 218.102 34.7282 220.002 34.0116C221.902 33.2949 223.86 33.0949 225.877 33.4116ZM207.852 47.2116C208.435 46.6282 209.147 46.3324 209.989 46.3241C210.831 46.3157 211.543 46.6032 212.127 47.1866C212.71 47.7699 212.997 48.4824 212.989 49.3241C212.981 50.1657 212.685 50.8782 212.102 51.4616C211.685 51.8782 210.989 52.2366 210.014 52.5366C209.039 52.8366 207.693 53.1032 205.977 53.3366C206.21 51.6199 206.477 50.2741 206.777 49.2991C207.077 48.3241 207.435 47.6282 207.852 47.2116ZM209.277 48.6116C209.11 48.7782 208.943 49.0824 208.777 49.5241C208.61 49.9657 208.493 50.4116 208.427 50.8616C208.877 50.7949 209.322 50.6824 209.764 50.5241C210.206 50.3657 210.51 50.2032 210.677 50.0366C210.877 49.8366 210.985 49.5949 211.002 49.3116C211.018 49.0282 210.927 48.7866 210.727 48.5866C210.527 48.3866 210.285 48.2907 210.002 48.2991C209.718 48.3074 209.477 48.4116 209.277 48.6116Z" fill="#6D5100"/>
<rect y="3.30127" width="290" height="80" fill="url(#paint0_linear_56_843)"/>
<defs>
<linearGradient id="paint0_linear_56_843" x1="124.492" y1="117.644" x2="165.508" y2="-31.0413" gradientUnits="userSpaceOnUse">
<stop stop-color="white" stop-opacity="0.2"/>
<stop offset="1" stop-color="white" stop-opacity="0"/>
</linearGradient>
</defs>
</svg>
