<svg width="216" height="224" viewBox="0 0 216 224" fill="none" xmlns="http://www.w3.org/2000/svg">
<path d="M56.6603 200.139L55.2169 197.639L7.21691 114.5L5.77356 112L7.21691 109.5L55.2169 26.3613L56.6603 23.8613L158.434 23.8613L159.877 26.3613L207.877 109.5L209.32 112L207.877 114.5L159.877 197.639L158.434 200.139L56.6603 200.139Z" fill="#806821" stroke="#ECE1D0" stroke-width="10"/>
<path d="M154.105 192.639L60.9903 192.639L14.4347 112L60.9904 31.3613L154.105 31.3613L200.66 112L154.105 192.639Z" fill="#806821" stroke="#FFC415" stroke-width="5"/>
<path d="M125.547 98V84.2L107.547 94L85.547 82L107.547 70L129.547 82V98H125.547ZM107.547 106L93.547 98.4V88.4L107.547 96L121.547 88.4V98.4L107.547 106Z" fill="#FFC415"/>
<path d="M89.3407 148.288C88.0607 148.288 86.8767 148.056 85.7887 147.592C84.7007 147.128 83.7487 146.48 82.9327 145.648C82.1167 144.816 81.4767 143.84 81.0127 142.72C80.5647 141.6 80.3407 140.376 80.3407 139.048C80.3407 137.72 80.5567 136.496 80.9887 135.376C81.4367 134.24 82.0607 133.264 82.8607 132.448C83.6767 131.616 84.6287 130.976 85.7167 130.528C86.8047 130.064 87.9887 129.832 89.2687 129.832C90.5487 129.832 91.6927 130.048 92.7007 130.48C93.7247 130.912 94.5887 131.488 95.2927 132.208C95.9967 132.912 96.5007 133.688 96.8047 134.536L93.9007 135.928C93.5647 135 92.9967 134.248 92.1967 133.672C91.3967 133.096 90.4207 132.808 89.2687 132.808C88.1487 132.808 87.1567 133.072 86.2927 133.6C85.4447 134.128 84.7807 134.856 84.3007 135.784C83.8367 136.712 83.6047 137.8 83.6047 139.048C83.6047 140.296 83.8447 141.392 84.3247 142.336C84.8207 143.264 85.5007 143.992 86.3647 144.52C87.2287 145.048 88.2207 145.312 89.3407 145.312C90.2527 145.312 91.0927 145.136 91.8607 144.784C92.6287 144.416 93.2447 143.904 93.7087 143.248C94.1727 142.576 94.4047 141.784 94.4047 140.872V139.504L95.8927 140.8H89.2687V138.04H97.6687V139.84C97.6687 141.216 97.4367 142.432 96.9727 143.488C96.5087 144.544 95.8767 145.432 95.0767 146.152C94.2927 146.856 93.4047 147.392 92.4127 147.76C91.4207 148.112 90.3967 148.288 89.3407 148.288ZM104.644 148.288C103.636 148.288 102.756 148.064 102.004 147.616C101.268 147.168 100.7 146.544 100.3 145.744C99.9156 144.944 99.7236 144.008 99.7236 142.936V134.944H102.868V142.672C102.868 143.216 102.972 143.696 103.18 144.112C103.404 144.512 103.716 144.832 104.116 145.072C104.532 145.296 104.996 145.408 105.508 145.408C106.02 145.408 106.476 145.296 106.876 145.072C107.276 144.832 107.588 144.504 107.812 144.088C108.036 143.672 108.148 143.176 108.148 142.6V134.944H111.292V148H108.316V145.432L108.58 145.888C108.276 146.688 107.772 147.288 107.068 147.688C106.38 148.088 105.572 148.288 104.644 148.288ZM114.214 148V134.944H117.166V137.848L116.926 137.416C117.23 136.44 117.702 135.76 118.342 135.376C118.998 134.992 119.782 134.8 120.694 134.8H121.462V137.584H120.334C119.438 137.584 118.718 137.864 118.174 138.424C117.63 138.968 117.358 139.736 117.358 140.728V148H114.214ZM127.847 148.288C126.839 148.288 125.959 148.064 125.207 147.616C124.471 147.168 123.903 146.544 123.503 145.744C123.119 144.944 122.927 144.008 122.927 142.936V134.944H126.071V142.672C126.071 143.216 126.175 143.696 126.383 144.112C126.607 144.512 126.919 144.832 127.319 145.072C127.735 145.296 128.199 145.408 128.711 145.408C129.223 145.408 129.679 145.296 130.079 145.072C130.479 144.832 130.791 144.504 131.015 144.088C131.239 143.672 131.351 143.176 131.351 142.6V134.944H134.495V148H131.519V145.432L131.783 145.888C131.479 146.688 130.975 147.288 130.271 147.688C129.583 148.088 128.775 148.288 127.847 148.288Z" fill="#FFC415"/>
</svg>
