<svg width="19" height="20" viewBox="0 0 19 20" fill="none" xmlns="http://www.w3.org/2000/svg">
<path d="M7.25 20L5.55 17H2.25L0 13L1.7 10L0 7L2.25 3H5.55L7.25 0H11.75L13.45 3H16.75L19 7L17.3 10L19 13L16.75 17H13.45L11.75 20H7.25ZM13.45 9H15.6L16.7 7L15.6 5H13.45L12.325 7L13.45 9ZM8.45 12H10.55L11.675 10L10.55 8H8.45L7.325 10L8.45 12ZM8.45 6H10.55L11.7 3.975L10.575 2H8.425L7.3 3.975L8.45 6ZM3.425 9H5.55L6.675 7L5.55 5H3.425L2.3 7L3.425 9ZM3.425 15H5.55L6.675 13L5.55 11H3.4L2.3 13L3.425 15ZM8.425 18H10.575L11.7 16.025L10.55 14H8.45L7.3 16.025L8.425 18ZM13.45 15H15.575L16.7 13L15.575 11H13.45L12.325 13L13.45 15Z" fill="#785900"/>
</svg>
