<svg width="216" height="224" viewBox="0 0 216 224" fill="none" xmlns="http://www.w3.org/2000/svg">
<path d="M56.6603 200.139L55.2169 197.639L7.21691 114.5L5.77356 112L7.21691 109.5L55.2169 26.3613L56.6603 23.8613L158.434 23.8613L159.877 26.3613L207.877 109.5L209.32 112L207.877 114.5L159.877 197.639L158.434 200.139L56.6603 200.139Z" fill="#FFC415" stroke="#ECE1D0" stroke-width="10"/>
<path d="M154.105 192.639L60.9903 192.639L14.4347 112L60.9904 31.3613L154.105 31.3613L200.66 112L154.105 192.639Z" fill="#FFC415" stroke="#806821" stroke-width="5"/>
<path d="M112.547 87.5C113.247 87.5 113.839 87.2583 114.322 86.775C114.805 86.2917 115.047 85.7 115.047 85C115.047 84.3 114.805 83.7083 114.322 83.225C113.839 82.7417 113.247 82.5 112.547 82.5C111.847 82.5 111.255 82.7417 110.772 83.225C110.289 83.7083 110.047 84.3 110.047 85C110.047 85.7 110.289 86.2917 110.772 86.775C111.255 87.2583 111.847 87.5 112.547 87.5ZM102.547 87.5C103.247 87.5 103.839 87.2583 104.322 86.775C104.805 86.2917 105.047 85.7 105.047 85C105.047 84.3 104.805 83.7083 104.322 83.225C103.839 82.7417 103.247 82.5 102.547 82.5C101.847 82.5 101.255 82.7417 100.772 83.225C100.289 83.7083 100.047 84.3 100.047 85C100.047 85.7 100.289 86.2917 100.772 86.775C101.255 87.2583 101.847 87.5 102.547 87.5ZM107.547 98C109.547 98 111.355 97.45 112.972 96.35C114.589 95.25 115.78 93.8 116.547 92H98.547C99.3137 93.8 100.505 95.25 102.122 96.35C103.739 97.45 105.547 98 107.547 98ZM107.547 106C105.047 106 102.705 105.525 100.522 104.575C98.3387 103.625 96.4387 102.342 94.822 100.725C93.2053 99.1083 91.922 97.2083 90.972 95.025C90.022 92.8417 89.547 90.5 89.547 88C89.547 85.5 90.022 83.1583 90.972 80.975C91.922 78.7917 93.2053 76.8917 94.822 75.275C96.4387 73.6583 98.3387 72.375 100.522 71.425C102.705 70.475 105.047 70 107.547 70C110.047 70 112.389 70.475 114.572 71.425C116.755 72.375 118.655 73.6583 120.272 75.275C121.889 76.8917 123.172 78.7917 124.122 80.975C125.072 83.1583 125.547 85.5 125.547 88C125.547 90.5 125.072 92.8417 124.122 95.025C123.172 97.2083 121.889 99.1083 120.272 100.725C118.655 102.342 116.755 103.625 114.572 104.575C112.389 105.525 110.047 106 107.547 106ZM108.347 81C108.914 81 109.555 80.8917 110.272 80.675C110.989 80.4583 111.347 79.9667 111.347 79.2C111.347 78.8 111.214 78.45 110.947 78.15C110.68 77.85 110.347 77.7 109.947 77.7C109.68 77.7 109.422 77.75 109.172 77.85C108.922 77.95 108.647 78 108.347 78C107.647 78 107.055 77.7583 106.572 77.275C106.089 76.7917 105.847 76.2 105.847 75.5C105.847 75.1333 105.905 74.825 106.022 74.575C106.139 74.325 106.314 74.15 106.547 74.05C105.914 74.1167 105.297 74.2 104.697 74.3C104.097 74.4 103.514 74.5667 102.947 74.8C102.914 74.9 102.889 75.0167 102.872 75.15C102.855 75.2833 102.847 75.4 102.847 75.5C102.847 77 103.389 78.2917 104.472 79.375C105.555 80.4583 106.847 81 108.347 81Z" fill="#806821"/>
<path d="M75.8766 148V130.12H78.9966L85.6926 139.216H84.2046L90.7566 130.12H93.8766V148H90.5886V133.84L91.8606 134.152L85.0686 143.2H84.6846L78.0606 134.152L79.1406 133.84V148H75.8766ZM101.69 148.288C100.682 148.288 99.8024 148.064 99.0504 147.616C98.3144 147.168 97.7464 146.544 97.3464 145.744C96.9624 144.944 96.7704 144.008 96.7704 142.936V134.944H99.9144V142.672C99.9144 143.216 100.018 143.696 100.226 144.112C100.45 144.512 100.762 144.832 101.162 145.072C101.578 145.296 102.042 145.408 102.554 145.408C103.066 145.408 103.522 145.296 103.922 145.072C104.322 144.832 104.634 144.504 104.858 144.088C105.082 143.672 105.194 143.176 105.194 142.6V134.944H108.338V148H105.362V145.432L105.626 145.888C105.322 146.688 104.818 147.288 104.114 147.688C103.426 148.088 102.618 148.288 101.69 148.288ZM111.261 148V134.944H114.213V137.848L113.973 137.416C114.277 136.44 114.749 135.76 115.389 135.376C116.045 134.992 116.829 134.8 117.741 134.8H118.509V137.584H117.381C116.485 137.584 115.765 137.864 115.221 138.424C114.677 138.968 114.405 139.736 114.405 140.728V148H111.261ZM120.238 148V134.944H123.382V148H120.238ZM120.238 133.48V130.12H123.382V133.48H120.238ZM132.356 148.288C131.092 148.288 129.964 147.992 128.972 147.4C127.98 146.792 127.196 145.968 126.62 144.928C126.044 143.888 125.756 142.736 125.756 141.472C125.756 140.192 126.044 139.04 126.62 138.016C127.196 136.992 127.98 136.176 128.972 135.568C129.98 134.96 131.1 134.656 132.332 134.656C133.324 134.656 134.204 134.856 134.972 135.256C135.756 135.64 136.372 136.184 136.82 136.888L136.34 137.536V129.832H139.484V148H136.508V145.48L136.844 146.104C136.396 146.808 135.772 147.352 134.972 147.736C134.172 148.104 133.3 148.288 132.356 148.288ZM132.692 145.408C133.412 145.408 134.044 145.24 134.588 144.904C135.132 144.568 135.556 144.104 135.86 143.512C136.18 142.92 136.34 142.24 136.34 141.472C136.34 140.72 136.18 140.048 135.86 139.456C135.556 138.848 135.132 138.376 134.588 138.04C134.044 137.704 133.412 137.536 132.692 137.536C131.988 137.536 131.356 137.712 130.796 138.064C130.236 138.4 129.796 138.864 129.476 139.456C129.172 140.032 129.02 140.704 129.02 141.472C129.02 142.24 129.172 142.92 129.476 143.512C129.796 144.104 130.236 144.568 130.796 144.904C131.356 145.24 131.988 145.408 132.692 145.408Z" fill="#6D5100"/>
</svg>
